<svg width="256" height="256" viewBox="0 0 256 256" fill="none" xmlns="http://www.w3.org/2000/svg">
	<path d="M187.543 51.3173C194.015 51.3173 199.159 55.6317 199.159 61.7715V195.52C199.159 201.825 194.015 206.14 187.543 206.14C181.071 206.14 175.927 201.825 175.927 195.52V183.572H136.101C131.123 183.572 126.975 179.423 126.975 174.445C126.975 169.467 131.123 165.318 136.101 165.318H175.927V61.7715C175.927 55.6317 181.071 51.3173 187.543 51.3173ZM144.896 121.51H72.0484C65.4107 121.51 61.76 117.859 61.76 111.222V66.4179C61.76 59.6143 65.4107 56.1295 72.0484 56.1295H144.896C151.534 56.1295 155.185 59.6143 155.185 66.4179V111.222C155.185 117.859 151.534 121.51 144.896 121.51ZM132.617 74.2171H84.4939V103.423H132.617V74.2171ZM169.621 143.912C169.621 148.89 165.639 153.039 160.661 153.039H116.023C114.363 167.808 110.547 182.742 105.734 197.677C104.241 202.655 100.092 206.14 94.6163 206.14C87.149 206.14 81.1751 200.166 83.6642 193.031C87.9787 179.921 91.4634 166.48 92.9569 153.039H59.6028C54.6246 153.039 50.4761 148.89 50.4761 143.912C50.4761 138.934 54.6246 134.785 59.6028 134.785H160.661C165.639 134.785 169.621 138.934 169.621 143.912Z" fill="#0F5777" />
</svg>
