<svg width="64" height="64" viewBox="0 0 64 64" fill="none" xmlns="http://www.w3.org/2000/svg">
	<path d="M36.0001 31.9987C36.0001 34.2078 34.2092 35.9987 32.0001 35.9987C29.7909 35.9987 28.0001 34.2078 28.0001 31.9987C28.0001 29.7895 29.7909 27.9987 32.0001 27.9987C34.2092 27.9987 36.0001 29.7895 36.0001 31.9987Z" fill="#4D5355" />
	<path d="M46.6668 42.6661C46.6668 44.8752 44.876 46.6661 42.6668 46.6661C40.4577 46.6661 38.6668 44.8752 38.6668 42.6661C38.6668 40.4569 40.4577 38.6661 42.6668 38.6661C44.876 38.6661 46.6668 40.4569 46.6668 42.6661Z" fill="#4D5355" />
	<path d="M25.3346 21.3325C25.3346 23.5417 23.5438 25.3325 21.3346 25.3325C19.1255 25.3325 17.3346 23.5417 17.3346 21.3325C17.3346 19.1234 19.1255 17.3325 21.3346 17.3325C23.5438 17.3325 25.3346 19.1234 25.3346 21.3325Z" fill="#4D5355" />
	<rect x="53.3342" y="10.6663" width="42.6667" height="42.6667" rx="5.33333" transform="rotate(90 53.3342 10.6663)" stroke="#4D5355" stroke-width="5.33333" />
</svg>
