<svg width="92" height="104" viewBox="0 0 92 104" fill="none" xmlns="http://www.w3.org/2000/svg">
	<path d="M20.359 86.5052H2.8986V74.5761H20.359V86.5052ZM17.0935 98.3676V94.7023H23.5579V73.7098H28.0229V103.566H23.5579V98.3676H17.0935ZM13.6614 102.866H9.12971V92.4364L0.566101 92.5697V88.8377L22.225 88.5711V92.2365L13.6614 92.3698V102.866ZM7.36367 78.3081V82.7732H15.894V78.3081H7.36367Z" fill="#0F5777" />
	<path d="M49.9263 89.904H33.2323V74.6761H49.9263V80.1408H54.5913V73.7098H59.0564V91.1369H54.5913V84.0061H49.9263V89.904ZM58.9897 103.699H54.5247V96.2684H35.1316V92.4697H58.9897V103.699ZM37.6974 78.4081V86.172H45.4612V78.4081H37.6974Z" fill="#0F5777" />
	<path d="M65.1987 99.4672L62.1998 96.3683C68.0977 92.5364 71.2299 86.2719 71.963 78.708H64.1991V74.9093H83.2922V78.708H76.5613C76.3281 81.1404 75.8282 83.4396 75.1285 85.6055C77.0611 89.904 80.0934 93.1695 84.2586 95.502L81.5595 98.7675C78.4273 96.8015 75.3617 93.5693 73.2625 90.0039C71.2965 93.7359 68.5642 96.9348 65.1987 99.4672ZM91.0895 103.566H86.6244V73.7098H91.0895V103.566Z" fill="#0F5777" />
	<path d="M15.752 60.752C13.4 60.752 11.896 59.648 11.896 57.936C11.896 56.224 13.4 55.12 15.752 55.12C18.104 55.12 19.608 56.224 19.608 57.936C19.608 59.648 18.104 60.752 15.752 60.752ZM23.192 62.528H21.048V51.856H23.192V55.808H24.968V57.664H23.192V62.528ZM13.56 61.552H15.704V64.272H23.512V66.032H13.56V61.552ZM20.088 54.624H11.416V52.864H14.76V51.408H16.904V52.864H20.088V54.624ZM15.752 56.816C14.6 56.816 14.072 57.216 14.072 57.936C14.072 58.656 14.6 59.056 15.752 59.056C16.904 59.056 17.432 58.656 17.432 57.936C17.432 57.216 16.904 56.816 15.752 56.816Z" fill="#0F5777" />
	<path d="M32.1364 66.576C28.9844 66.576 26.9684 65.456 26.9684 63.376C26.9684 61.296 28.9844 60.176 32.1364 60.176C35.2884 60.176 37.3044 61.296 37.3044 63.376C37.3044 65.456 35.2884 66.576 32.1364 66.576ZM32.1364 61.968C30.1204 61.968 29.1764 62.48 29.1764 63.376C29.1764 64.272 30.1204 64.784 32.1364 64.784C34.1524 64.784 35.0964 64.272 35.0964 63.376C35.0964 62.48 34.1524 61.968 32.1364 61.968ZM37.0164 60.016H34.8724V51.856H37.0164V53.2H38.7924V55.024H37.0164V56.368H38.7924V58.192H37.0164V60.016ZM29.3844 59.472C27.0644 59.472 25.3684 57.968 25.3684 55.728C25.3684 53.488 27.0644 51.984 29.3844 51.984C31.7044 51.984 33.4004 53.488 33.4004 55.728C33.4004 57.968 31.7044 59.472 29.3844 59.472ZM29.3844 53.776C28.1844 53.776 27.5124 54.544 27.5124 55.728C27.5124 56.912 28.1844 57.68 29.3844 57.68C30.5844 57.68 31.2564 56.912 31.2564 55.728C31.2564 54.544 30.5844 53.776 29.3844 53.776Z" fill="#0F5777" />
	<path d="M51.8967 66.176H49.8167V58.768H48.6327V65.824H46.5847V52.016H48.6327V56.848H49.8167V51.856H51.8967V66.176ZM40.0567 52.704H45.5447V54.528H42.1367V61.488H42.4087C43.4327 61.488 44.7607 61.456 46.0247 61.28V63.04C44.9847 63.248 43.6087 63.312 42.4087 63.312H40.0567V52.704Z" fill="#0F5777" />
	<path d="M57.7051 60.464C55.3531 60.464 53.8491 59.392 53.8491 57.744C53.8491 56.096 55.3531 55.024 57.7051 55.024C60.0571 55.024 61.5611 56.096 61.5611 57.744C61.5611 59.392 60.0571 60.464 57.7051 60.464ZM64.9531 66.272H62.8091V63.168H55.0331V61.408H64.9531V66.272ZM65.1451 60.736H63.0011V51.856H65.1451V55.552H66.9211V57.408H65.1451V60.736ZM62.0411 54.56H53.3691V52.8H56.7131V51.408H58.8571V52.8H62.0411V54.56ZM57.7051 56.72C56.5531 56.72 56.0251 57.088 56.0251 57.744C56.0251 58.4 56.5531 58.768 57.7051 58.768C58.8571 58.768 59.3851 58.4 59.3851 57.744C59.3851 57.088 58.8571 56.72 57.7051 56.72Z" fill="#0F5777" />
	<path d="M70.0255 58.224H72.2015V62.992H73.7055V58.224H75.8815V62.992H80.5375V64.816H67.3215V62.992H70.0255V58.224ZM78.5375 61.488H76.3935C76.9215 59.072 77.0815 56.032 77.0655 54.32H68.5535V52.496H79.3055C79.3215 55.488 79.1455 58.88 78.5375 61.488Z" fill="#0F5777" />
	<path d="M36.5068 15.182C35.9788 16.9625 35.4509 20.4912 35.5037 22.5014C35.5037 24.0999 36.0074 26.6002 37.8592 28.2784C40.8031 30.9464 47.792 30.0097 51.4348 28.8242C52.0176 28.6345 52.7734 28.2815 53.1848 27.6588C53.8274 26.6862 53.747 25.0945 52.623 25.2315C54.2565 24.7322 54.3881 21.9073 52.7228 21.9073C54.7274 21.7052 54.1517 18.3701 52.3148 18.3701C57.5827 16.8642 62.2707 14.5635 62.4819 13.6872C62.693 12.811 61.0544 12.1955 57.8359 13.1202C54.6758 14.0282 48.544 15.182 46.1682 15.5944C43.7925 16.0068 40.4664 15.182 40.7831 11.11C41.0999 7.03793 39.62 6.49103 39.1465 6.21321C38.6016 5.89349 36.8763 5.64621 37.2987 7.70801C37.721 9.76981 36.8003 14.1921 36.5068 15.182Z" fill="#D3D6D8" />
</svg>
